<svg width="24" height="23" viewBox="0 0 24 23" fill="none" xmlns="http://www.w3.org/2000/svg">
<path d="M10.5001 6.5H19.1961C19.8211 6.5 20.1331 6.5 20.3621 6.6C21.3741 7.047 20.9221 8.17 20.7521 8.978C20.7191 9.132 20.6191 9.225 20.5001 9.301M6.50006 6.5H2.80406C2.17906 6.5 1.86706 6.5 1.63806 6.6C0.626063 7.047 1.07806 8.17 1.24806 8.978C1.26461 9.0507 1.29754 9.11867 1.34433 9.17672C1.39112 9.23477 1.45054 9.28138 1.51806 9.313C1.79848 9.44216 2.04382 9.63671 2.23348 9.88032C2.42314 10.1239 2.5516 10.4095 2.60806 10.713L3.20106 14.088C3.46106 15.573 3.55106 17.694 4.85106 18.74C5.80606 19.5 7.18106 19.5 9.93206 19.5H11.0001" stroke="white" stroke-width="1.5" stroke-linecap="round"/>
<path d="M5.5 9.5L9 1.5M14 1.5L16.5 6.5" stroke="white" stroke-width="1.5" stroke-linecap="round"/>
<circle cx="17.9995" cy="16.5" r="6" fill="white"/>
</svg>
