<svg width="76" height="66" viewBox="0 0 76 66" fill="none" xmlns="http://www.w3.org/2000/svg">
<mask id="path-1-inside-1_182_8798" fill="white">
<path d="M62 35C62 52.1208 48.1208 66 31 66C13.8792 66 0 52.1208 0 35C0 17.8792 13.8792 4 31 4C48.1208 4 62 17.8792 62 35ZM6.2 35C6.2 48.6967 17.3033 59.8 31 59.8C44.6967 59.8 55.8 48.6967 55.8 35C55.8 21.3033 44.6967 10.2 31 10.2C17.3033 10.2 6.2 21.3033 6.2 35Z"/>
</mask>
<path d="M62 35C62 52.1208 48.1208 66 31 66C13.8792 66 0 52.1208 0 35C0 17.8792 13.8792 4 31 4C48.1208 4 62 17.8792 62 35ZM6.2 35C6.2 48.6967 17.3033 59.8 31 59.8C44.6967 59.8 55.8 48.6967 55.8 35C55.8 21.3033 44.6967 10.2 31 10.2C17.3033 10.2 6.2 21.3033 6.2 35Z" fill="#C7DAE1" stroke="#C7DAE1" stroke-width="2" mask="url(#path-1-inside-1_182_8798)"/>
<path d="M17 30.8852L31.0854 45L72 4" stroke="#C7DAE1" stroke-width="8" stroke-linecap="round" stroke-linejoin="round"/>
</svg>
