<svg width="21" height="22" viewBox="0 0 21 22" fill="none" xmlns="http://www.w3.org/2000/svg">
<path d="M14.7793 20.875C16.5693 19.725 17.7793 17.695 17.7793 15.375C17.7793 13.055 16.5693 11.025 14.7493 9.87503C17.8193 9.87503 20.2793 12.335 20.2793 15.375C20.2793 16.8337 19.6998 18.2327 18.6684 19.2641C17.6369 20.2956 16.238 20.875 14.7793 20.875ZM3.2093 19.375L1.7793 17.945L17.3493 2.37503L18.7793 3.80503L3.2093 19.375ZM9.3893 16.945L10.8693 17.875L12.3093 16.875L11.8893 18.575L13.2793 19.635L11.5293 19.755L10.9493 21.405L10.2793 19.775L8.5493 19.745L9.8993 18.615L9.3893 16.945ZM12.6893 13.335L13.8493 14.065L14.9693 13.285L14.6293 14.605L15.7193 15.435L14.3593 15.525L13.9093 16.815L13.3993 15.545L12.0393 15.515L13.0893 14.645L12.6893 13.335ZM3.2793 9.37503C3.2793 7.91634 3.85876 6.51739 4.89021 5.48594C5.92166 4.45449 7.32061 3.87503 8.7793 3.87503C9.9993 3.87503 11.1293 4.27503 12.0393 4.94503L4.3493 12.635C3.6793 11.725 3.2793 10.595 3.2793 9.37503ZM7.6793 2.79503L4.9093 3.94503L5.1493 0.595027L7.6793 2.79503ZM3.3493 5.49503L2.1993 8.26503L-0.000702441 5.72503L3.3493 5.49503ZM2.1993 10.455L3.3393 13.235L-0.000703076 12.995L2.1993 10.455ZM12.6493 3.94503L9.8793 2.79503L12.4093 0.605027L12.6493 3.94503Z" fill="black"/>
</svg>
