<svg width="34" height="35" viewBox="0 0 34 35" fill="none" xmlns="http://www.w3.org/2000/svg">
<g filter="url(#filter0_d_231_3105)">
<g clip-path="url(#clip0_231_3105)">
<path d="M23.375 5.40332H10.625C7.5184 5.40332 5 7.92172 5 11.0283V23.7783C5 26.8849 7.5184 29.4033 10.625 29.4033H23.375C26.4816 29.4033 29 26.8849 29 23.7783V11.0283C29 7.92172 26.4816 5.40332 23.375 5.40332Z" fill="#4B4B4B"/>
<path d="M23.375 5.40332H10.625C7.5184 5.40332 5 7.92172 5 11.0283V23.7783C5 26.8849 7.5184 29.4033 10.625 29.4033H23.375C26.4816 29.4033 29 26.8849 29 23.7783V11.0283C29 7.92172 26.4816 5.40332 23.375 5.40332Z" fill="#4B4B4B"/>
<path d="M17.0008 8.02832C14.4548 8.02832 14.1352 8.03948 13.1353 8.08495C12.1372 8.1307 11.4559 8.28866 10.8598 8.52051C10.2432 8.75995 9.72013 9.08029 9.19906 9.60154C8.67753 10.1227 8.35719 10.6457 8.117 11.2621C7.8845 11.8584 7.72634 12.5399 7.68144 13.5375C7.63672 14.5376 7.625 14.8573 7.625 17.4034C7.625 19.9496 7.63625 20.2681 7.68163 21.2681C7.72756 22.2661 7.88553 22.9474 8.11719 23.5435C8.35681 24.1602 8.67716 24.6832 9.19841 25.2043C9.71938 25.7258 10.2424 26.0469 10.8586 26.2863C11.4552 26.5182 12.1365 26.6761 13.1344 26.7219C14.1344 26.7674 14.4538 26.7785 16.9997 26.7785C19.5461 26.7785 19.8646 26.7674 20.8646 26.7219C21.8626 26.6761 22.5447 26.5182 23.1412 26.2863C23.7576 26.0469 24.2799 25.7258 24.8007 25.2043C25.3223 24.6832 25.6425 24.1602 25.8828 23.5438C26.1133 22.9474 26.2715 22.2659 26.3184 21.2683C26.3633 20.2683 26.375 19.9496 26.375 17.4034C26.375 14.8573 26.3633 14.5378 26.3184 13.5377C26.2715 12.5397 26.1133 11.8585 25.8828 11.2624C25.6425 10.6457 25.3223 10.1227 24.8007 9.60154C24.2793 9.0801 23.7578 8.75976 23.1406 8.5206C22.543 8.28866 21.8613 8.1306 20.8632 8.08495C19.8632 8.03948 19.5448 8.02832 16.9979 8.02832H17.0008ZM16.1598 9.71779C16.4095 9.71741 16.688 9.71779 17.0008 9.71779C19.5041 9.71779 19.8007 9.72679 20.7892 9.7717C21.7032 9.81351 22.1994 9.96623 22.5298 10.0946C22.9674 10.2644 23.2793 10.4676 23.6072 10.7958C23.9353 11.1239 24.1384 11.4364 24.3088 11.8739C24.4371 12.2039 24.59 12.7001 24.6316 13.6141C24.6765 14.6024 24.6863 14.8993 24.6863 17.4013C24.6863 19.9033 24.6765 20.2002 24.6316 21.1884C24.5898 22.1024 24.4371 22.5986 24.3088 22.9287C24.1389 23.3662 23.9353 23.6777 23.6072 24.0057C23.2791 24.3338 22.9676 24.5369 22.5298 24.7068C22.1997 24.8357 21.7032 24.9881 20.7892 25.0299C19.8009 25.0748 19.5041 25.0845 17.0008 25.0845C14.4975 25.0845 14.2008 25.0748 13.2126 25.0299C12.2985 24.9877 11.8024 24.835 11.4717 24.7066C11.0342 24.5367 10.7217 24.3336 10.3935 24.0055C10.0654 23.6774 9.86234 23.3656 9.692 22.9279C9.56366 22.5978 9.41075 22.1017 9.36913 21.1876C9.32422 20.1993 9.31522 19.9025 9.31522 17.3989C9.31522 14.8953 9.32422 14.6001 9.36913 13.6118C9.41094 12.6977 9.56366 12.2016 9.692 11.8711C9.86197 11.4336 10.0654 11.1211 10.3936 10.793C10.7218 10.4649 11.0342 10.2617 11.4717 10.0915C11.8022 9.96257 12.2985 9.81023 13.2126 9.76823C14.0774 9.72913 14.4126 9.71741 16.1598 9.71545V9.71779ZM22.0052 11.2744C21.3841 11.2744 20.8802 11.7779 20.8802 12.399C20.8802 13.0201 21.3841 13.524 22.0052 13.524C22.6263 13.524 23.1302 13.0201 23.1302 12.399C23.1302 11.7779 22.6263 11.274 22.0052 11.274V11.2744ZM17.0008 12.5889C14.3421 12.5889 12.1864 14.7446 12.1864 17.4034C12.1864 20.0623 14.3421 22.2169 17.0008 22.2169C19.6597 22.2169 21.8146 20.0623 21.8146 17.4034C21.8146 14.7447 19.6595 12.5889 17.0007 12.5889H17.0008ZM17.0008 14.2784C18.7267 14.2784 20.1259 15.6774 20.1259 17.4034C20.1259 19.1293 18.7267 20.5285 17.0008 20.5285C15.275 20.5285 13.8759 19.1293 13.8759 17.4034C13.8759 15.6774 15.2749 14.2784 17.0008 14.2784Z" fill="#F9F9F9"/>
</g>
</g>
<defs>
<filter id="filter0_d_231_3105" x="0" y="0.40332" width="34" height="34" filterUnits="userSpaceOnUse" color-interpolation-filters="sRGB">
<feFlood flood-opacity="0" result="BackgroundImageFix"/>
<feColorMatrix in="SourceAlpha" type="matrix" values="0 0 0 0 0 0 0 0 0 0 0 0 0 0 0 0 0 0 127 0" result="hardAlpha"/>
<feOffset/>
<feGaussianBlur stdDeviation="2.5"/>
<feComposite in2="hardAlpha" operator="out"/>
<feColorMatrix type="matrix" values="0 0 0 0 1 0 0 0 0 1 0 0 0 0 1 0 0 0 0.75 0"/>
<feBlend mode="normal" in2="BackgroundImageFix" result="effect1_dropShadow_231_3105"/>
<feBlend mode="normal" in="SourceGraphic" in2="effect1_dropShadow_231_3105" result="shape"/>
</filter>
<clipPath id="clip0_231_3105">
<rect x="5" y="5.40332" width="24" height="24" rx="8" fill="white"/>
</clipPath>
</defs>
</svg>
