<svg width="21" height="22" viewBox="0 0 21 22" fill="none" xmlns="http://www.w3.org/2000/svg">
<path d="M5.5 1.12521C3.71 2.27521 2.5 4.30521 2.5 6.62521C2.5 8.94521 3.71 10.9752 5.53 12.1252C2.46 12.1252 0 9.66521 0 6.62521C0 5.16652 0.579463 3.76758 1.61091 2.73613C2.64236 1.70468 4.04131 1.12521 5.5 1.12521ZM17.07 2.62521L18.5 4.05521L2.93 19.6252L1.5 18.1952L17.07 2.62521ZM10.89 5.05521L9.41 4.12521L7.97 5.12521L8.39 3.42522L7 2.36521L8.75 2.24521L9.33 0.595215L10 2.22521L11.73 2.25521L10.38 3.38522L10.89 5.05521ZM7.59 8.66521L6.43 7.93521L5.31 8.71521L5.65 7.39522L4.56 6.56522L5.92 6.47521L6.37 5.18521L6.88 6.45521L8.24 6.48522L7.19 7.35521L7.59 8.66521ZM17 12.6252C17 14.0839 16.4205 15.4829 15.3891 16.5143C14.3576 17.5458 12.9587 18.1252 11.5 18.1252C10.28 18.1252 9.15 17.7252 8.24 17.0552L15.93 9.36521C16.6 10.2752 17 11.4052 17 12.6252ZM12.6 19.2052L15.37 18.0552L15.13 21.4052L12.6 19.2052ZM16.93 16.5052L18.08 13.7352L20.28 16.2752L16.93 16.5052ZM18.08 11.5452L16.94 8.76521L20.28 9.00521L18.08 11.5452ZM7.63 18.0552L10.4 19.2052L7.87 21.3952L7.63 18.0552Z" fill="white"/>
</svg>
