<svg width="24" height="24" viewBox="0 0 24 24" fill="none" xmlns="http://www.w3.org/2000/svg">
<mask id="mask0_197_834" style="mask-type:luminance" maskUnits="userSpaceOnUse" x="3" y="14" width="17" height="8">
<path fill-rule="evenodd" clip-rule="evenodd" d="M3.99951 14.4961H19.8394V21.8701H3.99951V14.4961Z" fill="white"/>
</mask>
<g mask="url(#mask0_197_834)">
<path fill-rule="evenodd" clip-rule="evenodd" d="M11.9205 15.9961C7.65951 15.9961 5.49951 16.7281 5.49951 18.1731C5.49951 19.6311 7.65951 20.3701 11.9205 20.3701C16.1805 20.3701 18.3395 19.6381 18.3395 18.1931C18.3395 16.7351 16.1805 15.9961 11.9205 15.9961ZM11.9205 21.8701C9.96151 21.8701 3.99951 21.8701 3.99951 18.1731C3.99951 14.8771 8.52051 14.4961 11.9205 14.4961C13.8795 14.4961 19.8395 14.4961 19.8395 18.1931C19.8395 21.4891 15.3195 21.8701 11.9205 21.8701Z" fill="black"/>
</g>
<mask id="mask1_197_834" style="mask-type:luminance" maskUnits="userSpaceOnUse" x="6" y="2" width="12" height="11">
<path fill-rule="evenodd" clip-rule="evenodd" d="M6.60938 2.00012H17.2294V12.6187H6.60938V2.00012Z" fill="white"/>
</mask>
<g mask="url(#mask1_197_834)">
<path fill-rule="evenodd" clip-rule="evenodd" d="M11.9204 3.42776C9.77941 3.42776 8.03741 5.16876 8.03741 7.30976C8.03041 9.44376 9.75941 11.1838 11.8914 11.1918L11.9204 11.9058V11.1918C14.0604 11.1918 15.8014 9.44976 15.8014 7.30976C15.8014 5.16876 14.0604 3.42776 11.9204 3.42776ZM11.9204 12.6188H11.8884C8.96641 12.6098 6.59941 10.2268 6.60941 7.30676C6.60941 4.38176 8.99141 1.99976 11.9204 1.99976C14.8484 1.99976 17.2294 4.38176 17.2294 7.30976C17.2294 10.2378 14.8484 12.6188 11.9204 12.6188Z" fill="black"/>
</g>
</svg>
