<svg width="21" height="22" viewBox="0 0 21 22" fill="none" xmlns="http://www.w3.org/2000/svg">
<path fill-rule="evenodd" clip-rule="evenodd" d="M8.49928 1.93799C9.07928 1.93799 9.64928 1.99599 10.1983 2.10799C10.4582 2.16077 10.6865 2.31463 10.833 2.53574C10.9794 2.75684 11.0321 3.02708 10.9793 3.28699C10.9265 3.5469 10.7726 3.7752 10.5515 3.92167C10.3304 4.06813 10.0602 4.12077 9.80028 4.06799C8.54077 3.81105 7.23335 3.93333 6.04333 4.41937C4.85331 4.90542 3.83412 5.73339 3.11463 6.79862C2.39513 7.86385 2.00764 9.11849 2.00113 10.4039C1.99462 11.6894 2.3694 12.9479 3.07808 14.0203C3.78676 15.0928 4.79752 15.931 5.98256 16.4291C7.16759 16.9271 8.47371 17.0626 9.73575 16.8185C10.9978 16.5743 12.1591 15.9614 13.0729 15.0573C13.9866 14.1531 14.6118 12.9984 14.8693 11.739C14.8954 11.6103 14.9466 11.488 15.02 11.3791C15.0934 11.2702 15.1875 11.1768 15.297 11.1043C15.4065 11.0318 15.5292 10.9815 15.6581 10.9564C15.787 10.9313 15.9196 10.9319 16.0483 10.958C16.177 10.9841 16.2993 11.0353 16.4082 11.1087C16.5171 11.1821 16.6104 11.2763 16.683 11.3857C16.7555 11.4952 16.8057 11.6179 16.8308 11.7468C16.8559 11.8757 16.8554 12.0083 16.8293 12.137C16.5857 13.3296 16.0888 14.456 15.3723 15.44L15.1753 15.7L18.8273 19.352C19.0085 19.5315 19.1143 19.7736 19.123 20.0285C19.1316 20.2835 19.0425 20.5322 18.8738 20.7236C18.7051 20.915 18.4697 21.0347 18.2157 21.0582C17.9616 21.0817 17.7082 21.0072 17.5073 20.85L17.4133 20.766L13.7613 17.114C12.6967 17.953 11.447 18.5252 10.1163 18.7829C8.78562 19.0406 7.4126 18.9764 6.11179 18.5956C4.81098 18.2148 3.6201 17.5284 2.63851 16.5937C1.65692 15.659 0.913084 14.5032 0.469055 13.2226C0.0250263 11.942 -0.106316 10.5737 0.0859852 9.23203C0.278287 7.89034 0.788656 6.61408 1.57451 5.50974C2.36037 4.40541 3.39893 3.50501 4.60353 2.88368C5.80814 2.26235 7.14387 1.9381 8.49928 1.93799ZM16.9993 0.937988C17.1864 0.937988 17.3697 0.990466 17.5284 1.08946C17.6872 1.18845 17.815 1.32999 17.8973 1.49799L17.9453 1.61499L18.0753 1.99299C18.2125 2.39517 18.4336 2.76362 18.7239 3.07393C19.0142 3.38424 19.3671 3.62934 19.7593 3.79299L19.9443 3.86299L20.3223 3.99199C20.5095 4.05585 20.6735 4.17379 20.7937 4.33088C20.9138 4.48798 20.9847 4.67718 20.9973 4.87457C21.01 5.07195 20.9638 5.26864 20.8646 5.43977C20.7655 5.6109 20.6178 5.74879 20.4403 5.83599L20.3223 5.88399L19.9443 6.01399C19.5421 6.15119 19.1736 6.37227 18.8633 6.66258C18.553 6.9529 18.3079 7.30582 18.1443 7.69799L18.0743 7.88299L17.9453 8.26099C17.8813 8.44813 17.7633 8.61209 17.6061 8.73215C17.449 8.85221 17.2597 8.92298 17.0624 8.9355C16.865 8.94803 16.6683 8.90174 16.4973 8.80251C16.3262 8.70327 16.1884 8.55554 16.1013 8.37799L16.0533 8.26099L15.9233 7.88299C15.7861 7.4808 15.565 7.11236 15.2747 6.80205C14.9844 6.49173 14.6314 6.24664 14.2393 6.08299L14.0543 6.01299L13.6763 5.88399C13.4891 5.82013 13.325 5.70219 13.2049 5.54509C13.0847 5.38799 13.0138 5.19879 13.0012 5.00141C12.9886 4.80403 13.0348 4.60734 13.1339 4.43621C13.2331 4.26507 13.3808 4.12719 13.5583 4.03999L13.6763 3.99199L14.0543 3.86199C14.4565 3.72479 14.8249 3.50371 15.1352 3.2134C15.4455 2.92308 15.6906 2.57015 15.8543 2.17799L15.9243 1.99299L16.0533 1.61499C16.1207 1.41758 16.2481 1.24617 16.4177 1.12478C16.5873 1.00338 16.7907 0.938072 16.9993 0.937988ZM16.9993 4.13399C16.7627 4.43169 16.493 4.70143 16.1953 4.93799C16.4939 5.17465 16.7619 5.44265 16.9993 5.74199C17.2359 5.44332 17.5039 5.17532 17.8033 4.93799C17.5056 4.70143 17.2358 4.43169 16.9993 4.13399Z" fill="white"/>
</svg>
