<svg width="21" height="22" viewBox="0 0 21 22" fill="none" xmlns="http://www.w3.org/2000/svg">
<path fill-rule="evenodd" clip-rule="evenodd" d="M8.49928 1.93774C9.07928 1.93774 9.64928 1.99574 10.1983 2.10774C10.4582 2.16052 10.6865 2.31439 10.833 2.53549C10.9794 2.7566 11.0321 3.02683 10.9793 3.28674C10.9265 3.54666 10.7726 3.77496 10.5515 3.92142C10.3304 4.06789 10.0602 4.12052 9.80028 4.06774C8.54077 3.81081 7.23335 3.93309 6.04333 4.41913C4.85331 4.90517 3.83412 5.73315 3.11463 6.79838C2.39513 7.8636 2.00764 9.11825 2.00113 10.4037C1.99462 11.6891 2.3694 12.9476 3.07808 14.0201C3.78676 15.0925 4.79752 15.9308 5.98256 16.4288C7.16759 16.9269 8.47371 17.0624 9.73575 16.8182C10.9978 16.5741 12.1591 15.9612 13.0729 15.057C13.9866 14.1529 14.6118 12.9981 14.8693 11.7387C14.8954 11.61 14.9466 11.4878 15.02 11.3789C15.0934 11.27 15.1875 11.1766 15.297 11.1041C15.4065 11.0315 15.5292 10.9813 15.6581 10.9562C15.787 10.9311 15.9196 10.9316 16.0483 10.9577C16.177 10.9839 16.2993 11.0351 16.4082 11.1085C16.5171 11.1819 16.6104 11.276 16.683 11.3855C16.7555 11.495 16.8057 11.6177 16.8308 11.7466C16.8559 11.8755 16.8554 12.008 16.8293 12.1367C16.5857 13.3294 16.0888 14.4558 15.3723 15.4397L15.1753 15.6997L18.8273 19.3517C19.0085 19.5313 19.1143 19.7733 19.123 20.0283C19.1316 20.2833 19.0425 20.5319 18.8738 20.7233C18.7051 20.9147 18.4697 21.0344 18.2157 21.0579C17.9616 21.0814 17.7082 21.007 17.5073 20.8497L17.4133 20.7657L13.7613 17.1137C12.6967 17.9527 11.447 18.5249 10.1163 18.7827C8.78562 19.0404 7.4126 18.9762 6.11179 18.5953C4.81098 18.2145 3.6201 17.5281 2.63851 16.5935C1.65692 15.6588 0.913084 14.5029 0.469055 13.2223C0.0250263 11.9417 -0.106316 10.5735 0.0859852 9.23179C0.278287 7.89009 0.788656 6.61383 1.57451 5.5095C2.36037 4.40516 3.39893 3.50477 4.60353 2.88344C5.80814 2.26211 7.14387 1.93786 8.49928 1.93774ZM16.9993 0.937744C17.1864 0.937744 17.3697 0.990222 17.5284 1.08922C17.6872 1.18821 17.815 1.32975 17.8973 1.49774L17.9453 1.61474L18.0753 1.99274C18.2125 2.39493 18.4336 2.76337 18.7239 3.07369C19.0142 3.384 19.3671 3.62909 19.7593 3.79274L19.9443 3.86274L20.3223 3.99174C20.5095 4.05561 20.6735 4.17354 20.7937 4.33064C20.9138 4.48774 20.9847 4.67694 20.9973 4.87432C21.01 5.0717 20.9638 5.26839 20.8646 5.43953C20.7655 5.61066 20.6178 5.74854 20.4403 5.83574L20.3223 5.88374L19.9443 6.01374C19.5421 6.15095 19.1736 6.37202 18.8633 6.66234C18.553 6.95265 18.3079 7.30558 18.1443 7.69774L18.0743 7.88274L17.9453 8.26074C17.8813 8.44788 17.7633 8.61185 17.6061 8.73191C17.449 8.85197 17.2597 8.92274 17.0624 8.93526C16.865 8.94778 16.6683 8.9015 16.4973 8.80226C16.3262 8.70303 16.1884 8.55529 16.1013 8.37774L16.0533 8.26074L15.9233 7.88274C15.7861 7.48056 15.565 7.11211 15.2747 6.8018C14.9844 6.49149 14.6314 6.24639 14.2393 6.08274L14.0543 6.01274L13.6763 5.88374C13.4891 5.81988 13.325 5.70195 13.2049 5.54485C13.0847 5.38775 13.0138 5.19855 13.0012 5.00117C12.9886 4.80379 13.0348 4.60709 13.1339 4.43596C13.2331 4.26483 13.3808 4.12694 13.5583 4.03974L13.6763 3.99174L14.0543 3.86174C14.4565 3.72454 14.8249 3.50347 15.1352 3.21315C15.4455 2.92284 15.6906 2.56991 15.8543 2.17774L15.9243 1.99274L16.0533 1.61474C16.1207 1.41733 16.2481 1.24593 16.4177 1.12453C16.5873 1.00314 16.7907 0.937827 16.9993 0.937744ZM16.9993 4.13374C16.7627 4.43144 16.493 4.70119 16.1953 4.93774C16.4939 5.17441 16.7619 5.44241 16.9993 5.74174C17.2359 5.44308 17.5039 5.17508 17.8033 4.93774C17.5056 4.70119 17.2358 4.43144 16.9993 4.13374Z" fill="black"/>
</svg>
