<svg width="34" height="35" viewBox="0 0 34 35" fill="none" xmlns="http://www.w3.org/2000/svg">
<g filter="url(#filter0_d_231_3110)">
<g clip-path="url(#clip0_231_3110)">
<path d="M23.375 5.40332H10.625C7.5184 5.40332 5 7.92172 5 11.0283V23.7783C5 26.8849 7.5184 29.4033 10.625 29.4033H23.375C26.4816 29.4033 29 26.8849 29 23.7783V11.0283C29 7.92172 26.4816 5.40332 23.375 5.40332Z" fill="#F9F9F9"/>
<path d="M23.375 5.40332H10.625C7.5184 5.40332 5 7.92172 5 11.0283V23.7783C5 26.8849 7.5184 29.4033 10.625 29.4033H23.375C26.4816 29.4033 29 26.8849 29 23.7783V11.0283C29 7.92172 26.4816 5.40332 23.375 5.40332Z" fill="#4B4B4B"/>
<path d="M23.7099 13.9731C23.7202 14.1219 23.7202 14.2707 23.7202 14.4208C23.7202 18.9956 20.2376 24.2716 13.8694 24.2716V24.2688C11.9881 24.2715 10.1458 23.7327 8.5625 22.7168C8.83619 22.7496 9.11088 22.7663 9.38656 22.7668C10.9458 22.768 12.4602 22.245 13.6864 21.2818C12.964 21.2681 12.2639 21.0291 11.6839 20.598C11.104 20.1669 10.6733 19.5655 10.4519 18.8776C10.9706 18.9777 11.5054 18.9573 12.0149 18.818C10.3998 18.4917 9.23778 17.0726 9.23778 15.4244V15.3806C9.71927 15.6488 10.2581 15.7974 10.809 15.8139C9.28784 14.7972 8.81891 12.7734 9.73747 11.1911C10.6066 12.2607 11.691 13.1355 12.9204 13.7587C14.1497 14.3819 15.4963 14.7394 16.8729 14.8081C16.7356 14.2174 16.7559 13.6009 16.9317 13.0204C17.1074 12.4399 17.4325 11.9158 17.8744 11.5003C19.2688 10.1895 21.4619 10.2568 22.7728 11.6504C23.5481 11.4974 24.2916 11.2131 24.9713 10.81C24.7128 11.6116 24.172 12.292 23.4493 12.7247C24.1356 12.6438 24.8059 12.4601 25.4375 12.1798C24.9729 12.8756 24.3879 13.4828 23.7099 13.9731Z" fill="#F9F9F9"/>
</g>
</g>
<defs>
<filter id="filter0_d_231_3110" x="0" y="0.40332" width="34" height="34" filterUnits="userSpaceOnUse" color-interpolation-filters="sRGB">
<feFlood flood-opacity="0" result="BackgroundImageFix"/>
<feColorMatrix in="SourceAlpha" type="matrix" values="0 0 0 0 0 0 0 0 0 0 0 0 0 0 0 0 0 0 127 0" result="hardAlpha"/>
<feOffset/>
<feGaussianBlur stdDeviation="2.5"/>
<feComposite in2="hardAlpha" operator="out"/>
<feColorMatrix type="matrix" values="0 0 0 0 1 0 0 0 0 1 0 0 0 0 1 0 0 0 0.75 0"/>
<feBlend mode="normal" in2="BackgroundImageFix" result="effect1_dropShadow_231_3110"/>
<feBlend mode="normal" in="SourceGraphic" in2="effect1_dropShadow_231_3110" result="shape"/>
</filter>
<clipPath id="clip0_231_3110">
<rect x="5" y="5.40332" width="24" height="24" rx="8" fill="white"/>
</clipPath>
</defs>
</svg>
