<svg width="34" height="35" viewBox="0 0 34 35" fill="none" xmlns="http://www.w3.org/2000/svg">
<g filter="url(#filter0_d_youtube)">
<g clip-path="url(#clip0_youtube)">
<path d="M23.375 5.40332H10.625C7.5184 5.40332 5 7.92172 5 11.0283V23.7783C5 26.8849 7.5184 29.4033 10.625 29.4033H23.375C26.4816 29.4033 29 26.8849 29 23.7783V11.0283C29 7.92172 26.4816 5.40332 23.375 5.40332Z" fill="#4B4B4B"/>
<path d="M24.6 14.5C24.4 13.7 23.8 13.1 23.1 12.9C21.6 12.5 17 12.5 17 12.5C17 12.5 12.4 12.5 10.9 12.9C10.2 13.1 9.6 13.7 9.4 14.5C9 16 9 17.4 9 17.4C9 17.4 9 18.8 9.4 20.3C9.6 21.1 10.2 21.7 10.9 21.9C12.4 22.3 17 22.3 17 22.3C17 22.3 21.6 22.3 23.1 21.9C23.8 21.7 24.4 21.1 24.6 20.3C25 18.8 25 17.4 25 17.4C25 17.4 25 16 24.6 14.5Z" fill="#F9F9F9"/>
<path d="M15.5 19.9V14.9L20 17.4L15.5 19.9Z" fill="#4B4B4B"/>
</g>
</g>
<defs>
<filter id="filter0_d_youtube" x="0" y="0.40332" width="34" height="34" filterUnits="userSpaceOnUse" color-interpolation-filters="sRGB">
<feFlood flood-opacity="0" result="BackgroundImageFix"/>
<feColorMatrix in="SourceAlpha" type="matrix" values="0 0 0 0 0 0 0 0 0 0 0 0 0 0 0 0 0 0 127 0" result="hardAlpha"/>
<feOffset/>
<feGaussianBlur stdDeviation="2.5"/>
<feComposite in2="hardAlpha" operator="out"/>
<feColorMatrix type="matrix" values="0 0 0 0 1 0 0 0 0 1 0 0 0 0 1 0 0 0 0.75 0"/>
<feBlend mode="normal" in2="BackgroundImageFix" result="effect1_dropShadow_youtube"/>
<feBlend mode="normal" in="SourceGraphic" in2="effect1_dropShadow_youtube" result="shape"/>
</filter>
<clipPath id="clip0_youtube">
<rect x="5" y="5.40332" width="24" height="24" rx="8" fill="white"/>
</clipPath>
</defs>
</svg>
